<svg width="258" height="74" viewBox="0 0 258 74" fill="none" xmlns="http://www.w3.org/2000/svg">
<path d="M37 0C16.5655 0 0 16.5655 0 37C0 57.4345 16.5655 74 37 74C57.4345 74 74 57.4345 74 37C74 16.5655 57.4345 0 37 0Z" fill="#A485E1"/>
<path d="M129 0C108.565 0 92 16.5655 92 37C92 57.4345 108.565 74 129 74C149.435 74 166 57.4345 166 37C166 16.5655 149.435 0 129 0Z" fill="#74C3D0"/>
<path d="M221 0C200.565 0 184 16.5655 184 37C184 57.4345 200.565 74 221 74C241.435 74 258 57.4345 258 37C258 16.5655 241.435 0 221 0Z" fill="#81C784"/>
<path d="M69 37C69 37.5523 68.5523 38 68 38H97C97.5523 38 98 37.5523 98 37C98 36.4477 97.5523 36 97 36H68C68.5523 36 69 36.4477 69 37Z" fill="white" fill-opacity="0.5"/>
<path d="M161 37C161 37.5523 160.552 38 160 38H189C189.552 38 190 37.5523 190 37C190 36.4477 189.552 36 189 36H160C160.552 36 161 36.4477 161 37Z" fill="white" fill-opacity="0.5"/>
</svg>
